<?xml version="1.0" encoding="utf-8"?>
<!-- Generator: Adobe Illustrator 25.2.0, SVG Export Plug-In . SVG Version: 6.00 Build 0)  -->
<svg version="1.1" id="Layer_1" xmlns="http://www.w3.org/2000/svg" xmlns:xlink="http://www.w3.org/1999/xlink" x="0px" y="0px"
	 viewBox="0 0 340 340" style="enable-background:new 0 0 340 340;" xml:space="preserve">
<g>
	<path d="M170,114.61c15.17-0.04,30.34,0.6,45.45,2.04c15.1,1.42,30.17,3.49,45.03,6.72c14.83,3.25,29.59,7.34,43.49,13.79
		c6.92,3.26,13.7,7.04,19.61,12.18c2.94,2.56,5.66,5.51,7.76,8.96c2.1,3.43,3.5,7.5,3.55,11.7c0.09,4.21-1.19,8.36-3.2,11.91
		c-2.01,3.57-4.67,6.66-7.57,9.36c-5.83,5.41-12.55,9.51-19.46,13.01c-6.93,3.49-14.12,6.33-21.4,8.82
		c-7.29,2.46-14.68,4.58-22.15,6.34c-14.94,3.52-30.08,6-45.3,7.59c-15.23,1.55-30.52,2.3-45.81,2.36
		c-15.29-0.04-30.59-0.8-45.82-2.35c-15.23-1.56-30.37-4.07-45.31-7.58c-7.47-1.76-14.87-3.86-22.16-6.34
		c-7.28-2.49-14.47-5.33-21.4-8.82c-6.91-3.49-13.63-7.6-19.46-13.01c-2.9-2.71-5.55-5.79-7.57-9.37C6.27,178.37,5,174.21,5.09,170
		c0.05-4.21,1.45-8.28,3.56-11.71c2.1-3.46,4.82-6.4,7.76-8.97c5.92-5.14,12.7-8.92,19.62-12.18c13.91-6.45,28.67-10.54,43.5-13.78
		c14.86-3.23,29.92-5.3,45.03-6.72C139.66,115.21,154.83,114.57,170,114.61z M170,114.61c-15.17,0.06-30.34,0.8-45.42,2.34
		c-15.08,1.56-30.07,4.04-44.81,7.51c-7.37,1.74-14.65,3.82-21.81,6.25c-7.15,2.44-14.18,5.23-20.89,8.62
		c-6.69,3.39-13.13,7.36-18.52,12.38c-2.68,2.5-5.06,5.31-6.79,8.4c-1.74,3.09-2.74,6.5-2.66,9.9c0.06,3.4,1.19,6.72,3.01,9.69
		c1.82,2.98,4.26,5.64,6.98,8.01c5.47,4.75,11.98,8.4,18.67,11.54c13.48,6.25,28.01,10.28,42.63,13.49
		c14.66,3.18,29.57,5.22,44.53,6.64c14.97,1.42,30.01,2.05,45.06,2.02c15.04,0.04,30.09-0.6,45.06-2.02
		c14.96-1.39,29.88-3.45,44.54-6.63c14.63-3.19,29.16-7.23,42.64-13.48c6.7-3.14,13.2-6.79,18.68-11.54
		c2.73-2.37,5.16-5.03,6.99-8.01c1.83-2.97,2.96-6.3,3.01-9.7c0.08-3.41-0.93-6.82-2.66-9.91c-1.73-3.1-4.11-5.9-6.79-8.41
		c-5.39-5.02-11.84-9-18.53-12.38c-6.71-3.38-13.74-6.17-20.89-8.61c-7.15-2.43-14.44-4.51-21.81-6.24
		c-14.74-3.47-29.73-5.94-44.81-7.5C200.34,115.41,185.17,114.67,170,114.61z"/>
	<path d="M122.03,197.69c-7.62-13.12-14.65-26.58-20.96-40.38c-6.32-13.79-12.06-27.88-16.69-42.35
		c-4.6-14.47-8.44-29.29-9.81-44.56c-0.64-7.62-0.75-15.38,0.74-23.07c0.75-3.83,1.94-7.65,3.88-11.2c1.92-3.54,4.74-6.78,8.36-8.93
		c3.6-2.18,7.83-3.15,11.91-3.18c4.1-0.04,8.1,0.71,11.89,1.87c7.6,2.34,14.51,6.12,21,10.35c6.48,4.26,12.54,9.06,18.34,14.12
		c5.78,5.08,11.31,10.42,16.57,16.01c10.51,11.18,20.24,23.05,29.22,35.44c8.95,12.41,17.25,25.28,24.95,38.5
		c7.61,13.27,14.6,26.89,20.87,40.85c6.26,13.97,11.66,28.33,16.09,43.03c2.21,7.35,4.09,14.81,5.59,22.36
		c1.49,7.55,2.62,15.2,3.06,22.95c0.43,7.73,0.23,15.61-1.54,23.36c-0.89,3.86-2.24,7.7-4.33,11.24c-2.07,3.52-5.03,6.71-8.72,8.73
		c-3.67,2.06-7.9,2.88-11.92,2.78c-4.05-0.09-7.95-0.97-11.65-2.24c-7.41-2.56-14.07-6.54-20.35-10.9
		c-12.54-8.82-23.46-19.56-33.68-30.78c-10.22-11.25-19.55-23.27-28.33-35.64C137.72,223.67,129.58,210.85,122.03,197.69z
		 M122.03,197.69c7.64,13.11,15.86,25.87,24.74,38.17c8.9,12.28,18.53,24.02,28.91,35.05c5.19,5.51,10.64,10.78,16.31,15.76
		c5.69,4.97,11.62,9.66,17.9,13.78c6.28,4.1,12.94,7.7,19.98,9.85c3.51,1.07,7.13,1.73,10.67,1.68c3.54-0.04,7-0.87,9.9-2.64
		c2.92-1.75,5.23-4.39,6.89-7.45c1.67-3.07,2.76-6.51,3.44-10.05c1.38-7.11,1.28-14.57,0.66-21.94c-1.33-14.8-5.1-29.4-9.64-43.66
		c-4.57-14.29-10.26-28.22-16.51-41.89c-6.25-13.67-13.23-27.02-20.78-40.03c-7.49-13.05-15.56-25.76-24.28-38.02
		c-8.69-12.26-17.93-24.15-28.01-35.25c-10.08-11.07-20.84-21.63-33-30.19c-6.07-4.23-12.49-8.04-19.34-10.4
		c-3.41-1.18-6.94-1.96-10.43-2.05c-3.49-0.09-6.93,0.59-9.91,2.24c-2.99,1.63-5.44,4.21-7.25,7.26c-1.82,3.05-3.06,6.51-3.88,10.09
		c-1.65,7.18-1.87,14.75-1.46,22.23c0.43,7.5,1.52,14.99,2.98,22.4c1.48,7.41,3.32,14.76,5.5,22.01
		c4.37,14.5,9.72,28.72,15.91,42.56C107.56,171.02,114.5,184.53,122.03,197.69z"/>
	<path d="M217.97,197.69c-7.55,13.16-15.69,25.98-24.49,38.35c-8.79,12.37-18.11,24.38-28.33,35.63
		c-10.23,11.22-21.15,21.95-33.69,30.77c-6.28,4.36-12.94,8.34-20.35,10.89c-3.69,1.27-7.6,2.14-11.64,2.24
		c-4.02,0.1-8.24-0.72-11.91-2.78c-3.69-2.03-6.64-5.21-8.71-8.73c-2.09-3.53-3.43-7.37-4.32-11.23
		c-1.77-7.75-1.96-15.62-1.54-23.36c0.45-7.74,1.57-15.39,3.06-22.94c1.51-7.55,3.37-15.01,5.58-22.36
		c4.42-14.69,9.84-29.05,16.08-43.03c6.27-13.96,13.27-27.58,20.87-40.85c7.69-13.22,15.99-26.09,24.94-38.5
		c8.97-12.4,18.71-24.27,29.22-35.45c5.26-5.59,10.78-10.94,16.57-16.02c5.79-5.07,11.86-9.86,18.34-14.12
		c6.48-4.24,13.4-8.01,21-10.35c3.79-1.16,7.79-1.91,11.9-1.87c4.08,0.03,8.32,1,11.92,3.18c3.62,2.15,6.44,5.4,8.37,8.94
		c1.94,3.55,3.14,7.37,3.88,11.21c1.49,7.69,1.38,15.46,0.74,23.08c-1.37,15.27-5.21,30.09-9.81,44.56
		c-4.63,14.48-10.37,28.56-16.7,42.35C232.62,171.11,225.59,184.58,217.97,197.69z M217.97,197.69
		c7.53-13.17,14.47-26.67,20.69-40.51c6.19-13.84,11.54-28.06,15.9-42.56c2.18-7.25,4.01-14.6,5.49-22.01
		c1.46-7.41,2.56-14.89,2.98-22.4c0.41-7.48,0.19-15.05-1.46-22.23c-0.83-3.57-2.07-7.03-3.88-10.08c-1.8-3.05-4.25-5.62-7.24-7.25
		c-2.98-1.65-6.42-2.33-9.9-2.24c-3.49,0.09-7.01,0.87-10.42,2.05c-6.85,2.36-13.26,6.17-19.33,10.4
		c-12.15,8.55-22.91,19.12-33,30.18c-10.09,11.1-19.31,23-28.02,35.25c-8.72,12.25-16.78,24.97-24.28,38.01
		c-7.56,13.01-14.53,26.36-20.78,40.03c-6.27,13.66-11.95,27.6-16.52,41.89c-4.55,14.26-8.31,28.87-9.64,43.67
		c-0.63,7.37-0.72,14.83,0.66,21.95c0.68,3.55,1.77,6.99,3.44,10.06c1.66,3.07,3.97,5.71,6.9,7.46c2.91,1.77,6.37,2.61,9.91,2.65
		c3.55,0.05,7.17-0.61,10.68-1.68c7.04-2.16,13.71-5.75,19.98-9.86c6.28-4.12,12.22-8.81,17.9-13.78
		c5.68-4.98,11.12-10.25,16.31-15.77c10.37-11.03,20.01-22.77,28.9-35.06C202.1,223.56,210.33,210.8,217.97,197.69z"/>
</g>
<rect x="145.71" y="145.71" transform="matrix(0.7071 0.7071 -0.7071 0.7071 170 -70.4163)" width="48.58" height="48.58"/>
</svg>
